<svg width="36" height="36" viewBox="0 0 36 36" fill="none" xmlns="http://www.w3.org/2000/svg">
<path d="M20.1214 18L26.4854 24.364C27.0712 24.9497 27.0712 25.8995 26.4854 26.4853C25.8996 27.0711 24.9499 27.0711 24.3641 26.4853L18.0001 20.1213L11.6361 26.4853C11.0504 27.0711 10.1006 27.0711 9.51482 26.4853C8.92904 25.8995 8.92904 24.9497 9.51482 24.364L15.8788 18L9.51482 11.636C8.92904 11.0503 8.92904 10.1005 9.51482 9.51472C10.1006 8.92893 11.0504 8.92893 11.6361 9.51472L18.0001 15.8787L24.3641 9.51472C24.9499 8.92893 25.8996 8.92893 26.4854 9.51472C27.0712 10.1005 27.0712 11.0503 26.4854 11.636L20.1214 18Z" fill="#98A2B3"/>
</svg>
