<svg width="24" height="24" viewBox="0 0 24 24" fill="none" xmlns="http://www.w3.org/2000/svg">
<path fill-rule="evenodd" clip-rule="evenodd" d="M11.1646 3.1001H11.2H12.8H12.8354H12.8354C13.3653 3.10008 13.8164 3.10007 14.1869 3.13034C14.576 3.16213 14.9546 3.23177 15.3166 3.41618C15.8622 3.69421 16.3059 4.13786 16.5839 4.68353C16.7683 5.04546 16.8379 5.42405 16.8697 5.81321C16.8988 6.1685 16.8999 6.59807 16.9 7.1001H17.8L17.8354 7.1001C18.3652 7.10008 18.8164 7.10007 19.1869 7.13034C19.576 7.16213 19.9546 7.23177 20.3166 7.41618C20.8622 7.69421 21.3059 8.13786 21.5839 8.68353C21.7683 9.04546 21.8379 9.42405 21.8697 9.81321C21.9 10.1836 21.9 10.6348 21.9 11.1647V11.1647V11.1647V11.2001V12.6001V12.6334C21.9 13.0249 21.9 13.3714 21.8766 13.6586C21.8516 13.9644 21.7956 14.2812 21.6384 14.5897C21.4083 15.0413 21.0411 15.4084 20.5896 15.6385C20.3617 15.7546 20.1292 15.8155 19.9 15.8495V16.4001V16.4362C19.9 17.0355 19.9 17.5391 19.8663 17.9512C19.8311 18.382 19.7547 18.7915 19.5567 19.1802C19.2546 19.7729 18.7728 20.2548 18.18 20.5568C17.7914 20.7548 17.3819 20.8313 16.9511 20.8665C16.539 20.9001 16.0355 20.9001 15.4362 20.9001H15.4361L15.4 20.9001H8.59998L8.56384 20.9001H8.56374C7.9645 20.9001 7.46096 20.9001 7.04889 20.8665C6.61805 20.8313 6.20858 20.7548 5.81991 20.5568C5.2272 20.2548 4.74531 19.7729 4.44331 19.1802C4.24527 18.7915 4.16882 18.382 4.13362 17.9512C4.09995 17.5391 4.09996 17.0355 4.09998 16.4362L4.09998 16.4001V15.8495C3.87077 15.8155 3.63829 15.7546 3.4104 15.6385C2.95881 15.4084 2.59166 15.0413 2.36156 14.5897C2.2044 14.2812 2.14839 13.9644 2.1234 13.6586C2.09994 13.3714 2.09996 13.025 2.09998 12.6335V12.6334L2.09998 12.6001V11.2001L2.09998 11.1647V11.1646C2.09996 10.6348 2.09995 10.1836 2.13022 9.81321C2.16201 9.42405 2.23165 9.04546 2.41606 8.68353C2.69409 8.13786 3.13774 7.69421 3.68341 7.41618C4.04534 7.23177 4.42393 7.16213 4.81309 7.13034C5.18353 7.10007 5.63471 7.10008 6.16458 7.1001L6.19998 7.1001H7.09998C7.10001 6.59807 7.10119 6.1685 7.13022 5.81321C7.16201 5.42405 7.23165 5.04546 7.41606 4.68353C7.69409 4.13786 8.13774 3.69421 8.68341 3.41618C9.04534 3.23177 9.42393 3.16213 9.81309 3.13034C10.1835 3.10007 10.6347 3.10008 11.1646 3.1001H11.1646ZM5.39998 14.1001H18.6C19.0349 14.1001 19.3069 14.0994 19.5119 14.0827C19.7064 14.0668 19.76 14.041 19.7724 14.0347C19.8853 13.9772 19.9771 13.8854 20.0346 13.7725C20.0409 13.7601 20.0666 13.7065 20.0825 13.512C20.0993 13.307 20.1 13.035 20.1 12.6001V11.2001C20.1 10.6252 20.0993 10.2481 20.0757 9.95979C20.053 9.68194 20.0137 9.5666 19.9801 9.50071C19.8746 9.29373 19.7063 9.12545 19.4994 9.01999C19.4335 8.98642 19.3181 8.94706 19.0403 8.92436C18.7519 8.9008 18.3749 8.9001 17.8 8.9001H16.9V8.90011H16H7.99998H7.09998V8.9001H6.19998C5.62508 8.9001 5.24803 8.9008 4.95967 8.92436C4.68182 8.94706 4.56648 8.98642 4.50059 9.01999C4.29361 9.12545 4.12533 9.29373 4.01987 9.50071C3.9863 9.5666 3.94694 9.68194 3.92424 9.95979C3.90068 10.2481 3.89998 10.6252 3.89998 11.2001V12.6001C3.89998 13.035 3.90068 13.307 3.91743 13.512C3.93331 13.7065 3.95905 13.7601 3.96537 13.7725C4.0229 13.8854 4.11469 13.9772 4.22758 14.0347C4.24 14.041 4.2936 14.0668 4.48807 14.0827C4.69305 14.0994 4.96509 14.1001 5.39998 14.1001ZM5.89998 15.9001V16.4001C5.89998 17.045 5.90068 17.4746 5.92764 17.8046C5.95375 18.1241 5.99992 18.2704 6.04712 18.363C6.17655 18.617 6.38307 18.8235 6.63709 18.953C6.72972 19.0002 6.87594 19.0463 7.19547 19.0724C7.52551 19.0994 7.95507 19.1001 8.59998 19.1001H15.4C16.0449 19.1001 16.4744 19.0994 16.8045 19.0724C17.124 19.0463 17.2702 19.0002 17.3629 18.953C17.6169 18.8235 17.8234 18.617 17.9528 18.363C18 18.2704 18.0462 18.1241 18.0723 17.8046C18.0993 17.4746 18.1 17.045 18.1 16.4001V15.9001H5.89998ZM15.0757 5.95979C15.0979 6.23108 15.0998 6.58088 15.1 7.1001H8.89999C8.90014 6.58088 8.90207 6.23108 8.92424 5.95979C8.94694 5.68194 8.9863 5.5666 9.01987 5.50071C9.12533 5.29373 9.29361 5.12545 9.50059 5.01999C9.56648 4.98642 9.68182 4.94706 9.95967 4.92436C10.248 4.9008 10.6251 4.9001 11.2 4.9001H12.8C13.3749 4.9001 13.7519 4.9008 14.0403 4.92436C14.3181 4.94706 14.4335 4.98642 14.4994 5.01999C14.7063 5.12545 14.8746 5.29373 14.9801 5.50071C15.0137 5.5666 15.053 5.68194 15.0757 5.95979Z" fill="#2D66EE"/>
</svg>
